<svg xmlns="http://www.w3.org/2000/svg" viewBox="0 0 32 32">
  <rect width="32" height="32" rx="6" fill="#0d1016" />
  <path
    d="M14 1c-.43057-.00022524-.812955.2751544-.949219.6835938L12.035156 4.730469c-.410051.1443778-.81115.3099019-1.203125.4980468L7.958984 3.792969c-.385025-.192405-.8499682-.1168812-1.1542969.1875L3.976563 6.808594c-.3043812.3043287-.379905.7692719-.1875 1.1542968l1.4335937 2.8671872c-.1885794.39394-.3554568.796828-.5 1.208984l-3.0429687 1.015626c-.4084391.136264-.68381856.518648-.68359375.949218v4c-.00022524.43057.27515435.812955.68359375.949219l3.0527344 1.017578c.1438828.407584.3090971.805606.4960937 1.195313l-1.4394531 2.878906c-.1924051.385025-.1168813.849968.1875 1.154297l2.828125 2.830078c.3043287.304381.7692719.379905 1.1542969.1875l2.8730466-1.4375c.391573.187086.791637.352283 1.201172.496094l1.017578 3.050781c.136264.408439.518649.683818.949219.683594h4c.43057.000225.812955-.275154.949219-.683594l1.017578-3.056641c.406496-.143244.804637-.308036 1.193359-.49414l2.88086 1.441406c.385025.192405.849967.116881 1.154296-.1875l2.828126-2.830078c.304381-.304329.379905-.769272.1875-1.154297l-1.435547-2.871094c.188179-.392579.353616-.794395.498047-1.205078l3.046874-1.015625c.40844-.136264.683819-.518649.683594-.949219v-4c.000225-.43057-.275155-.812954-.683594-.949218l-3.048828-1.016602c-.144351-.409397-.310214-.809839-.498046-1.201171l1.4375-2.8750004c.192405-.3850249.116881-.8499681-.1875-1.1542968L25.195312 3.980469c-.304329-.304381-.769271-.379905-1.154296-.1875l-2.865235 1.4316406c-.395249-.1889764-.799375-.3552819-1.21289-.5L18.949219 1.6835938C18.812955 1.2751544 18.43057.99977476 18 1zM15.996094 8.998047c3.854148 0 7.005859 3.151686 7.005859 7.005859 0 3.854136-3.151711 6.998047-7.005859 6.998047-3.854149 0-6.9980471-3.143911-6.9980471-6.998047 0-3.854173 3.1438981-7.005859 6.9980471-7.005859z"
    fill="#e14c4c"
    fill-rule="evenodd"
    clip-rule="evenodd"
    transform="translate(4 4) scale(0.75)"
  />
</svg>